# xmcd CD database file
#
# Track frame offsets:
#	150
#	32992
#	65161
#	88687
#	130094
#	191540
#
# Disc length: 2989 seconds
#
# Revision: 0
# Processed by: cddbd v1.5.2PL0 Copyright (c) Steve Scherf et al.
# Submitted via: CDex 1.51
#
DISCID=520bab06
DTITLE=Jodi Serota - The Sounds of Healing
DYEAR=2002
DGENRE=New Age
TTITLE0=01-Expansion - Healing At Deeper Levels
TTITLE1=02-Ancient Crystal Skulls - For recognition
TTITLE2=03-From Illusion To Truth - DNA Shift
TTITLE3=04-Pure Relaxation
TTITLE4=05-Calling All Archangels - For A Message and Assistance
TTITLE5=06-Remember Who You Are - Angels Sing
EXTD=YEAR: 2002
EXTT0=
EXTT1=
EXTT2=
EXTT3=
EXTT4=
EXTT5=
PLAYORDER=
